<svg width="42" height="43" viewBox="0 0 42 43" fill="none" xmlns="http://www.w3.org/2000/svg">
<path d="M16.8678 33.2463L22.3523 27.7618L16.8678 22.2773L11.3833 27.7618L16.8678 33.2463Z" fill="#00009B" style="fill:#00009B;fill:color(display-p3 0.0000 0.0000 0.6078);fill-opacity:1;"/>
<path d="M16.9043 9.74824L21.0532 5.59933L16.9043 1.45044L12.7555 5.59933L16.9043 9.74824Z" fill="#00009B" style="fill:#00009B;fill:color(display-p3 0.0000 0.0000 0.6078);fill-opacity:1;"/>
<path d="M5.84046 33.2092L11.325 27.7247L5.84046 22.2402L0.355957 27.7247L5.84046 33.2092Z" fill="#00009B" style="fill:#00009B;fill:color(display-p3 0.0000 0.0000 0.6078);fill-opacity:1;"/>
<path d="M5.84046 11.0839L11.325 5.59937L5.84046 0.114868L0.355957 5.59937L5.84046 11.0839Z" fill="#00009B" style="fill:#00009B;fill:color(display-p3 0.0000 0.0000 0.6078);fill-opacity:1;"/>
<path d="M16.8678 42.7013L20.6861 38.883L16.8678 35.0647L13.0496 38.883L16.8678 42.7013Z" fill="#00009B" style="fill:#00009B;fill:color(display-p3 0.0000 0.0000 0.6078);fill-opacity:1;"/>
<path d="M16.8679 20.8672L21.0161 16.719L16.8679 12.5708L12.7197 16.719L16.8679 20.8672Z" fill="#00009B" style="fill:#00009B;fill:color(display-p3 0.0000 0.0000 0.6078);fill-opacity:1;"/>
<path d="M5.84289 42.5225L9.57714 38.7883L5.84289 35.054L2.10864 38.7883L5.84289 42.5225Z" fill="#00009B" style="fill:#00009B;fill:color(display-p3 0.0000 0.0000 0.6078);fill-opacity:1;"/>
<path d="M5.84046 22.1471L11.325 16.6626L5.84046 11.1781L0.355957 16.6626L5.84046 22.1471Z" fill="#00009B" style="fill:#00009B;fill:color(display-p3 0.0000 0.0000 0.6078);fill-opacity:1;"/>
<path d="M27.8895 29.1847L29.2726 27.8016L27.8895 26.4185L26.5063 27.8016L27.8895 29.1847Z" fill="#00009B" style="fill:#00009B;fill:color(display-p3 0.0000 0.0000 0.6078);fill-opacity:1;"/>
<path d="M27.8897 8.44219L30.6558 5.67617L27.8897 2.91016L25.1237 5.67617L27.8897 8.44219Z" fill="#00009B" style="fill:#00009B;fill:color(display-p3 0.0000 0.0000 0.6078);fill-opacity:1;"/>
<path d="M38.9828 29.1847L40.366 27.8016L38.9828 26.4185L37.5997 27.8016L38.9828 29.1847Z" fill="#00009B" style="fill:#00009B;fill:color(display-p3 0.0000 0.0000 0.6078);fill-opacity:1;"/>
<path d="M33.4513 34.6874L34.8345 33.3042L33.4513 31.9211L32.0682 33.3042L33.4513 34.6874Z" fill="#00009B" style="fill:#00009B;fill:color(display-p3 0.0000 0.0000 0.6078);fill-opacity:1;"/>
<path d="M23.7709 34.6874L25.1541 33.3042L23.7709 31.9211L22.3878 33.3042L23.7709 34.6874Z" fill="#00009B" style="fill:#00009B;fill:color(display-p3 0.0000 0.0000 0.6078);fill-opacity:1;"/>
<path d="M38.9828 8.41255L41.7191 5.67624L38.9828 2.93994L36.2465 5.67624L38.9828 8.41255Z" fill="#00009B" style="fill:#00009B;fill:color(display-p3 0.0000 0.0000 0.6078);fill-opacity:1;"/>
<path d="M27.8895 40.2191L29.2726 38.836L27.8895 37.4529L26.5063 38.836L27.8895 40.2191Z" fill="#00009B" style="fill:#00009B;fill:color(display-p3 0.0000 0.0000 0.6078);fill-opacity:1;"/>
<path d="M27.8902 19.5052L30.6859 16.7094L27.8902 13.9137L25.0944 16.7094L27.8902 19.5052Z" fill="#00009B" style="fill:#00009B;fill:color(display-p3 0.0000 0.0000 0.6078);fill-opacity:1;"/>
<path d="M38.9828 40.2191L40.366 38.836L38.9828 37.4529L37.5997 38.836L38.9828 40.2191Z" fill="#00009B" style="fill:#00009B;fill:color(display-p3 0.0000 0.0000 0.6078);fill-opacity:1;"/>
<path d="M38.983 19.4754L41.749 16.7094L38.983 13.9434L36.217 16.7094L38.983 19.4754Z" fill="#00009B" style="fill:#00009B;fill:color(display-p3 0.0000 0.0000 0.6078);fill-opacity:1;"/>
<path d="M33.4513 13.9437L36.2173 11.1777L33.4513 8.41174L30.6853 11.1777L33.4513 13.9437Z" fill="#00009B" style="fill:#00009B;fill:color(display-p3 0.0000 0.0000 0.6078);fill-opacity:1;"/>
<path d="M33.4513 25.0072L36.2173 22.2411L33.4513 19.4751L30.6853 22.2411L33.4513 25.0072Z" fill="#00009B" style="fill:#00009B;fill:color(display-p3 0.0000 0.0000 0.6078);fill-opacity:1;"/>
<path d="M23.7708 25.0072L26.5369 22.2411L23.7709 19.4751L21.0048 22.2412L23.7708 25.0072Z" fill="#00009B" style="fill:#00009B;fill:color(display-p3 0.0000 0.0000 0.6078);fill-opacity:1;"/>
<path d="M22.3881 13.9437L25.1542 11.1777L22.3881 8.41174L19.6221 11.1777L22.3881 13.9437Z" fill="#00009B" style="fill:#00009B;fill:color(display-p3 0.0000 0.0000 0.6078);fill-opacity:1;"/>
</svg>
