<?xml version="1.0" encoding="utf-8"?>
<!-- Generator: Adobe Illustrator 23.1.0, SVG Export Plug-In . SVG Version: 6.00 Build 0)  -->
<svg version="1.1" id="Слой_1" xmlns="http://www.w3.org/2000/svg" xmlns:xlink="http://www.w3.org/1999/xlink" x="0px" y="0px"
	 viewBox="0 0 668.4 674.4" style="enable-background:new 0 0 668.4 674.4;" xml:space="preserve">
<style type="text/css">
	.st0{fill:none;}
	.st1{fill:url(#SVGID_1_);}
	.st2{fill:url(#SVGID_2_);}
</style>
<path class="st0" d="M668.4,337.2c0,85.3-31.9,163.1-84.5,222.1c-61.2,68.8-150.4,112.1-249.7,112.1C149.6,671.4,0,521.8,0,337.2
	C0,152.6,149.6,3,334.2,3c48.7,0,95,10.4,136.8,29.2C587.4,84.4,668.4,201.4,668.4,337.2z"/>
<linearGradient id="SVGID_1_" gradientUnits="userSpaceOnUse" x1="86.9762" y1="569.1005" x2="336.5619" y2="569.1005">
	<stop  offset="0.32" style="stop-color:#E0EAFC"/>
	<stop  offset="1" style="stop-color:#1A2030"/>
</linearGradient>
<path class="st1" d="M333.9,636.5c-24.5-0.3-49-3.4-72.7-9.6c-11.8-3.1-23.5-6.9-34.8-11.4c-2.8-1.2-5.7-2.3-8.5-3.5
	c-2.8-1.3-5.6-2.4-8.3-3.8c-2.7-1.3-5.5-2.6-8.2-4l-8.1-4.3c-21.4-11.8-41.3-26.1-59.2-42.7c-17.8-16.6-33.7-35.3-47-55.6
	c13.7,20.1,29.9,38.4,47.9,54.6c18.1,16.1,38.2,30,59.6,41.3l8.1,4.1c2.7,1.3,5.5,2.5,8.2,3.8c2.7,1.3,5.5,2.4,8.3,3.6
	c2.8,1.2,5.6,2.2,8.4,3.3c11.3,4.2,22.9,7.8,34.6,10.6c23.5,5.7,47.6,8.3,71.7,8.1h0c1.5,0,2.7,1.2,2.7,2.6
	C336.6,635.3,335.4,636.5,333.9,636.5L333.9,636.5z"/>
<linearGradient id="SVGID_2_" gradientUnits="userSpaceOnUse" x1="394.588" y1="475.6052" x2="644.1738" y2="475.6052" gradientTransform="matrix(-1 0 0 -1 975.6704 580.9235)">
	<stop  offset="0.32" style="stop-color:#E0EAFC"/>
	<stop  offset="1" style="stop-color:#1A2030"/>
</linearGradient>
<path class="st2" d="M334.2,37.9c24.5,0.3,49,3.4,72.7,9.6c11.8,3.1,23.5,6.9,34.8,11.4c2.8,1.2,5.7,2.3,8.5,3.5
	c2.8,1.3,5.6,2.4,8.3,3.8c2.7,1.3,5.5,2.6,8.2,4l8.1,4.3c21.4,11.8,41.3,26.1,59.2,42.7c17.8,16.6,33.7,35.3,47,55.6
	c-13.7-20.1-29.9-38.4-47.9-54.6C515,102,495,88.1,473.6,76.8l-8.1-4.1c-2.7-1.3-5.5-2.5-8.2-3.8c-2.7-1.3-5.5-2.4-8.3-3.6
	c-2.8-1.2-5.6-2.2-8.4-3.3c-11.3-4.2-22.9-7.8-34.6-10.6c-23.5-5.7-47.6-8.3-71.7-8.1h0c-1.5,0-2.7-1.2-2.7-2.6
	C331.5,39.1,332.7,37.9,334.2,37.9L334.2,37.9z"/>
</svg>
