<svg width="26" height="25" viewBox="0 0 26 25" fill="none" xmlns="http://www.w3.org/2000/svg">
<path d="M24.0701 0.996043C23.7491 1.0194 23.434 1.09471 23.1371 1.21904H23.1331C22.8481 1.33204 21.4931 1.90204 19.4331 2.76604L12.0511 5.87504C6.75412 8.10504 1.54712 10.301 1.54712 10.301L1.60912 10.277C1.60912 10.277 1.25012 10.395 0.875119 10.652C0.643447 10.7995 0.444092 10.9924 0.289119 11.219C0.105119 11.489 -0.0428813 11.902 0.0121187 12.329C0.102119 13.051 0.570119 13.484 0.906119 13.723C1.24612 13.965 1.57012 14.078 1.57012 14.078H1.57812L6.46112 15.723C6.68012 16.426 7.94912 20.598 8.25412 21.559C8.43412 22.133 8.60912 22.492 8.82812 22.766C8.93412 22.906 9.05812 23.023 9.20712 23.117C9.28458 23.1621 9.36717 23.1977 9.45312 23.223L9.40312 23.211C9.41812 23.215 9.43012 23.227 9.44112 23.231C9.48112 23.242 9.50812 23.246 9.55912 23.254C10.3321 23.488 10.9531 23.008 10.9531 23.008L10.9881 22.98L13.8711 20.355L18.7031 24.062L18.8131 24.109C19.8201 24.551 20.8401 24.305 21.3791 23.871C21.9221 23.434 22.1331 22.875 22.1331 22.875L22.1681 22.785L25.9021 3.65604C26.0081 3.18404 26.0351 2.74204 25.9181 2.31304C25.7974 1.87887 25.5189 1.50545 25.1371 1.26604C24.8165 1.07116 24.4448 0.977092 24.0701 0.996043V0.996043ZM23.9691 3.04604C23.9651 3.10904 23.9771 3.10204 23.9491 3.22304V3.23404L20.2501 22.164C20.2341 22.191 20.2071 22.25 20.1331 22.309C20.0551 22.371 19.9931 22.41 19.6681 22.281L13.7581 17.75L10.1881 21.004L10.9381 16.214L20.5941 7.21404C20.9921 6.84404 20.8591 6.76604 20.8591 6.76604C20.8871 6.31204 20.2581 6.63304 20.2581 6.63304L8.08212 14.176L8.07812 14.156L2.24212 12.191V12.187L2.22712 12.184C2.23735 12.1806 2.24737 12.1766 2.25712 12.172L2.28912 12.156L2.32012 12.145C2.32012 12.145 7.53112 9.94904 12.8281 7.71904C15.4801 6.60204 18.1521 5.47704 20.2071 4.60904C21.4259 4.09605 22.6459 3.58604 23.8671 3.07904C23.9491 3.04704 23.9101 3.04704 23.9691 3.04704V3.04604Z" fill="black"/>
</svg>
